<?xml version="1.0" encoding="UTF-8" standalone="no" ?>
<!DOCTYPE svg PUBLIC "-//W3C//DTD SVG 1.1//EN" "http://www.w3.org/Graphics/SVG/1.1/DTD/svg11.dtd">
<svg xmlns="http://www.w3.org/2000/svg" xmlns:xlink="http://www.w3.org/1999/xlink" version="1.1" width="1080" height="1080" viewBox="0 0 1080 1080" xml:space="preserve">
<desc>Created with Fabric.js 5.2.4</desc>
<defs>
</defs>
<g transform="matrix(1 0 0 1 540 540)" id="b834a370-056d-45df-81b1-c4aed88369c5"  >
<rect style="stroke: none; stroke-width: 1; stroke-dasharray: none; stroke-linecap: butt; stroke-dashoffset: 0; stroke-linejoin: miter; stroke-miterlimit: 4; fill: rgb(255,255,255); fill-rule: nonzero; opacity: 1; visibility: hidden;" vector-effect="non-scaling-stroke"  x="-540" y="-540" rx="0" ry="0" width="1080" height="1080" />
</g>
<g transform="matrix(1 0 0 1 540 540)" id="3046cd74-5362-4ba8-ac82-080147aa5fa4"  >
</g>
<g transform="matrix(25.12 0 0 25.12 540 540)"  >
<g style=""   >
		<g transform="matrix(1 0 0 1 0 0.04)" clip-path="url(#CLIPPATH_3)"  >
<clipPath id="CLIPPATH_3" >
	<rect transform="matrix(1 0 0 1 0 0)" id="clip0_66_71" x="-21.5" y="-21.45435" rx="0" ry="0" width="43" height="42.9087" />
</clipPath>
<rect style="stroke: none; stroke-width: 1; stroke-dasharray: none; stroke-linecap: butt; stroke-dashoffset: 0; stroke-linejoin: miter; stroke-miterlimit: 4; fill: rgb(255,106,0); fill-rule: nonzero; opacity: 1;" vector-effect="non-scaling-stroke"  x="-21.5" y="-21.45435" rx="0" ry="0" width="43" height="42.9087" />
</g>
		<g transform="matrix(1 0 0 1 0 -0.09)" clip-path="url(#CLIPPATH_4)"  >
<clipPath id="CLIPPATH_4" >
	<rect transform="matrix(1 0 0 1 0 0.13)" id="clip0_66_71" x="-21.5" y="-21.45435" rx="0" ry="0" width="43" height="42.9087" />
</clipPath>
<path style="stroke: none; stroke-width: 1; stroke-dasharray: none; stroke-linecap: butt; stroke-dashoffset: 0; stroke-linejoin: miter; stroke-miterlimit: 4; fill: rgb(128,0,0); fill-rule: nonzero; opacity: 1;" vector-effect="non-scaling-stroke"  transform=" translate(-21.5, -21.91)" d="M 43 22.0415 C 43 10.1926 33.3741 0.587158 21.5 0.587158 C 9.62587 0.587158 0 10.1926 0 22.0415 C 0 32.7498 7.8622 41.6257 18.1406 43.2352 L 18.1406 28.2432 L 12.6816 28.2432 L 12.6816 22.0415 L 18.1406 22.0415 L 18.1406 17.3149 C 18.1406 11.9379 21.3505 8.96777 26.2615 8.96777 C 28.6131 8.96777 31.0742 9.3868 31.0742 9.3868 L 31.0742 14.6666 L 28.3632 14.6666 C 25.6925 14.6666 24.8594 16.3205 24.8594 18.0188 L 24.8594 22.0415 L 30.8223 22.0415 L 29.869 28.2432 L 24.8594 28.2432 L 24.8594 43.2352 C 35.1378 41.6257 43 32.7498 43 22.0415 Z" stroke-linecap="round" />
</g>
</g>
</g>
</svg>