<svg width="92" height="108" viewBox="0 0 92 108" fill="none" xmlns="http://www.w3.org/2000/svg">
<path d="M46.2097 54.2112C46.2097 54.2112 52.3855 66.3532 64.594 73.3901C76.8025 80.4289 90.4214 79.697 90.4214 79.697C90.4214 79.697 84.2476 67.5531 72.0391 60.5162C59.8306 53.4794 46.2097 54.2112 46.2097 54.2112ZM46.2097 54.2112C46.2097 54.2112 32.5908 53.4794 20.3823 60.5162C8.17378 67.5531 2 79.697 2 79.697C2 79.697 15.6189 80.4289 27.8274 73.3901C40.0359 66.3532 46.2097 54.2112 46.2097 54.2112ZM46.2097 53.7888C46.2097 53.7888 40.0359 41.6468 27.8274 34.6099C15.6189 27.5711 2 28.3049 2 28.3049C2 28.3049 8.17378 40.4469 20.3823 47.4857C32.5908 54.5226 46.2097 53.7888 46.2097 53.7888ZM46.2097 53.7888C46.2097 53.7888 59.8306 54.5226 72.0391 47.4857C84.2476 40.4469 90.4214 28.3049 90.4214 28.3049C90.4214 28.3049 76.8025 27.5711 64.594 34.6099C52.3855 41.6468 46.2097 53.7888 46.2097 53.7888ZM53.6548 80.5142C53.6548 94.5899 46.2097 106 46.2097 106C46.2097 106 38.7646 94.5899 38.7646 80.5142C38.7646 66.4385 46.2097 55.0264 46.2097 55.0264C46.2097 55.0264 53.6548 66.4385 53.6548 80.5142ZM38.7646 27.4858C38.7646 13.4121 46.2097 2 46.2097 2C46.2097 2 53.6548 13.4121 53.6548 27.4858C53.6548 41.5615 46.2097 52.9717 46.2097 52.9717C46.2097 52.9717 38.7646 41.5615 38.7646 27.4858Z" stroke="#f0d375" stroke-width="2" stroke-miterlimit="10" style="mix-blend-mode:color-dodge"/>
</svg>
