<svg width="66" height="870" viewBox="0 0 66 870" fill="#FF6A00" xmlns="http://www.w3.org/2000/svg">
<path fill-rule="evenodd" clip-rule="evenodd" d="M-4 869.833L-4.00005 433.396L65.38 490.019L-0.620056 543.884L65.38 597.748L-0.620037 651.613L65.38 705.477L-0.620052 759.342L65.38 813.21L-4 869.833ZM-1.24001 756.583L61.38 705.477L-1.24002 654.371L-1.24001 756.583ZM-1.24001 762.1L-1.24 864.316L61.3801 813.21L-1.24001 762.1ZM-1.24003 541.125L61.38 490.019L-1.24005 438.913L-1.24003 541.125ZM-1.24003 546.642L-1.24002 648.854L61.38 597.748L-1.24003 546.642Z" fill="#FF6A00" fill-opacity="0.9" style="mix-blend-mode:soft-light"/>
<path fill-rule="evenodd" clip-rule="evenodd" d="M-4 436.437L-4.00005 2.60136e-05L65.38 56.623L-0.620056 110.488L65.38 164.352L-0.620037 218.216L65.38 272.081L-0.620052 325.945L65.38 379.814L-4 436.437ZM-1.24001 323.187L61.38 272.081L-1.24002 220.975L-1.24001 323.187ZM-1.24001 328.704L-1.24 430.92L61.3801 379.814L-1.24001 328.704ZM-1.24003 107.729L61.38 56.623L-1.24005 5.51702L-1.24003 107.729ZM-1.24003 113.246L-1.24002 215.458L61.38 164.352L-1.24003 113.246Z" fill="#FF6A00" fill-opacity="0.9" style="mix-blend-mode:soft-light"/>
</svg>
