<?xml version="1.0" encoding="UTF-8" standalone="no" ?>
<!DOCTYPE svg PUBLIC "-//W3C//DTD SVG 1.1//EN" "http://www.w3.org/Graphics/SVG/1.1/DTD/svg11.dtd">
<svg xmlns="http://www.w3.org/2000/svg" xmlns:xlink="http://www.w3.org/1999/xlink" version="1.1" width="1080" height="1080" viewBox="0 0 1080 1080" xml:space="preserve">
<desc>Created with Fabric.js 5.2.4</desc>
<defs>
</defs>
<g transform="matrix(1 0 0 1 540 540)" id="b148447f-2d1c-462e-8f7f-6dfdd00ec673"  >
<rect style="stroke: none; stroke-width: 1; stroke-dasharray: none; stroke-linecap: butt; stroke-dashoffset: 0; stroke-linejoin: miter; stroke-miterlimit: 4; fill: rgb(255,255,255); fill-rule: nonzero; opacity: 1; visibility: hidden;" vector-effect="non-scaling-stroke"  x="-540" y="-540" rx="0" ry="0" width="1080" height="1080" />
</g>
<g transform="matrix(1 0 0 1 540 540)" id="045155ef-67d8-4fc0-8572-fc5375844e6f"  >
</g>
<g transform="matrix(24.55 0 0 24.55 540 540)"  >
<g style=""   >
		<g transform="matrix(1 0 0 1 0.17 0.04)" clip-path="url(#CLIPPATH_3)"  >
<clipPath id="CLIPPATH_3" >
	<rect transform="matrix(1 0 0 1 0 0)" id="clip0_66_73" x="-21.5" y="-21.45435" rx="0" ry="0" width="43" height="42.9087" />
</clipPath>
<rect style="stroke: none; stroke-width: 1; stroke-dasharray: none; stroke-linecap: butt; stroke-dashoffset: 0; stroke-linejoin: miter; stroke-miterlimit: 4; fill: rgb(255,106,0); fill-rule: nonzero; opacity: 1;" vector-effect="non-scaling-stroke"  x="-21.5" y="-21.45435" rx="0" ry="0" width="43" height="42.9087" />
</g>
		<g transform="matrix(1 0 0 1 0.17 0.04)" clip-path="url(#CLIPPATH_4)"  >
<clipPath id="CLIPPATH_4" >
	<rect transform="matrix(1 0 0 1 0 0)" id="clip0_66_73" x="-21.5" y="-21.45435" rx="0" ry="0" width="43" height="42.9087" />
</clipPath>
<path style="stroke: none; stroke-width: 1; stroke-dasharray: none; stroke-linecap: butt; stroke-dashoffset: 0; stroke-linejoin: miter; stroke-miterlimit: 4; fill: rgb(128,0,0); fill-rule: nonzero; opacity: 1;" vector-effect="non-scaling-stroke"  transform=" translate(-22.17, -22.04)" d="M 14.194 39.4733 C 30.4164 39.4733 39.2919 26.0584 39.2919 14.4286 C 39.2919 14.0515 39.2835 13.666 39.2667 13.2889 C 40.9932 12.0429 42.4832 10.4996 43.6666 8.73151 C 42.0587 9.44541 40.3514 9.91165 38.6032 10.1143 C 40.4439 9.0133 41.8222 7.28365 42.4824 5.24601 C 40.7508 6.27009 38.857 6.99248 36.8824 7.38223 C 35.5519 5.97152 33.7927 5.03746 31.8769 4.72447 C 29.9611 4.41147 27.9953 4.73698 26.2834 5.65066 C 24.5716 6.56434 23.209 8.01531 22.4064 9.77922 C 21.6039 11.5431 21.4059 13.5218 21.8433 15.4092 C 18.3369 15.2336 14.9067 14.3247 11.7749 12.7413 C 8.64318 11.158 5.87983 8.93557 3.66403 6.21817 C 2.53784 8.15572 2.19323 10.4485 2.70022 12.6305 C 3.20722 14.8125 4.52778 16.7199 6.39352 17.9653 C 4.99284 17.9209 3.62283 17.5446 2.3967 16.8674 L 2.3967 16.9764 C 2.39545 19.0097 3.09988 20.9807 4.39026 22.5543 C 5.68064 24.128 7.47733 25.2071 9.47491 25.6084 C 8.17739 25.9626 6.81559 26.0142 5.49489 25.7592 C 6.05857 27.5079 7.15528 29.0373 8.63197 30.1341 C 10.1087 31.2308 11.8916 31.8402 13.7321 31.8771 C 10.6076 34.3262 6.74786 35.6546 2.77463 35.6483 C 2.07002 35.6473 1.36609 35.6042 0.666626 35.5193 C 4.70299 38.1033 9.39837 39.4758 14.194 39.4733 Z" stroke-linecap="round" />
</g>
</g>
</g>
</svg>